<svg version="1.2" xmlns="http://www.w3.org/2000/svg" viewBox="0 0 79 75" width="79" height="75">
	<title>logo copy-svg</title>
	<defs>
		<linearGradient id="g1" x1="9.7" y1="19" x2="21.8" y2="53.1" gradientUnits="userSpaceOnUse">
			<stop offset="0" stop-color="#485bff"/>
			<stop offset="1" stop-color="#ff59f8"/>
		</linearGradient>
		<linearGradient id="g2" x1="9.7" y1="19" x2="21.8" y2="53.1" gradientUnits="userSpaceOnUse">
			<stop offset="0" stop-color="#485bff"/>
			<stop offset="1" stop-color="#ff59f8"/>
		</linearGradient>
		<linearGradient id="g3" x1="9.7" y1="19" x2="21.8" y2="53.1" gradientUnits="userSpaceOnUse">
			<stop offset="0" stop-color="#485bff"/>
			<stop offset="1" stop-color="#ff59f8"/>
		</linearGradient>
		<linearGradient id="g4" x1="3.1" y1="3" x2="63.3" y2="77.5" gradientUnits="userSpaceOnUse">
			<stop offset="0" stop-color="#485bff"/>
			<stop offset="1" stop-color="#ff59f8"/>
		</linearGradient>
	</defs>
	<style>
		.s0 { fill: url(#g1) } 
		.s1 { fill: url(#g2) } 
		.s2 { fill: url(#g3) } 
		.s3 { fill: none;stroke: url(#g4);stroke-width: 4.3 } 
	</style>
	<path id="Layer" fill-rule="evenodd" class="s0" d="m28.1 24.8l-3.1 15.5h-4.2l0.3-1.5q-2 1.7-4.8 1.7-1.8 0-3.3-0.8-1.5-0.9-2.4-2.4-0.9-1.6-0.9-3.7 0-2.6 1.1-4.6 1.1-2.1 3.1-3.2 1.9-1.2 4.3-1.2 3.5 0 5 2.3l0.4-2.1zm-10.4 12q1.4 0 2.4-0.6 1-0.7 1.6-1.8 0.6-1.2 0.6-2.7 0-1.5-1-2.5-0.9-0.9-2.6-0.9-1.3 0-2.3 0.7-1 0.6-1.6 1.8-0.6 1.1-0.6 2.6 0 1.6 0.9 2.5 1 0.9 2.6 0.9z"/>
	<path id="Layer" class="s1" d="m33.6 40.5q-2 0-3.8-0.4-1.8-0.5-2.8-1.2l1.8-3.2q1 0.6 2.4 1 1.5 0.4 2.9 0.4 1.5 0 2.3-0.4 0.7-0.4 0.7-1.1 0-0.5-0.6-0.8-0.7-0.3-2.2-0.5-1.6-0.4-2.7-0.7-1.1-0.4-1.9-1.2-0.7-0.9-0.7-2.4 0-2.5 2.1-3.9 2.1-1.5 5.6-1.5 1.6 0 3.1 0.4 1.5 0.3 2.6 0.9l-1.6 3.3q-1.9-1.2-4.6-1.2-1.4 0-2.2 0.4-0.7 0.5-0.7 1.1 0 0.6 0.6 0.9 0.7 0.3 2.2 0.6 1.7 0.3 2.7 0.7 1.1 0.3 1.8 1.1 0.8 0.9 0.8 2.3 0 2.6-2.2 4-2.1 1.4-5.6 1.4z"/>
	<path id="Layer" class="s2" d="m53.6 31.6l5.3 8.7h-5.2l-3.7-6-2.7 2.2-0.7 3.8h-4.5l4.2-21.3h4.5l-2.4 11.9 7.4-6.1h5.9z"/>
	<path id="Layer" class="s3" d="m3.1 15.9v-7.2c0-3.1 2.6-5.7 5.7-5.7h61.7c3.1 0 5.7 2.6 5.7 5.7v40.2c0 3.1-2.6 5.7-5.7 5.7h-10.1l3.4 15.7c0.3 1.3-1.4 2.3-2.4 1.3l-15.3-14.1h-37.3c-3.1 0-5.7-2.6-5.7-5.8v-2.8"/>
</svg>