<?xml version="1.0" encoding="iso-8859-1"?>
<!-- Generator: Adobe Illustrator 19.0.0, SVG Export Plug-In . SVG Version: 6.00 Build 0)  -->
<svg version="1.1" id="Layer_1" xmlns="http://www.w3.org/2000/svg" xmlns:xlink="http://www.w3.org/1999/xlink" x="0px" y="0px"
	 viewBox="0 0 512 512" style="enable-background:new 0 0 512 512;" xml:space="preserve">
<circle style="fill:#77AAD4;" cx="256.003" cy="256.003" r="248"/>
<g>
	<circle style="fill:#1D71B8;" cx="288.003" cy="64.001" r="23.998"/>
	<circle style="fill:#1D71B8;" cx="175.997" cy="256.003" r="16"/>
	<circle style="fill:#1D71B8;" cx="64.001" cy="376.001" r="16"/>
	<circle style="fill:#1D71B8;" cx="335.998" cy="175.997" r="16"/>
	<circle style="fill:#1D71B8;" cx="200.005" cy="440.002" r="23.998"/>
	<circle style="fill:#1D71B8;" cx="79.996" cy="183.999" r="56"/>
	<path style="fill:#1D71B8;" d="M255.999,8.001c136.966,0,248,111.033,248,248s-111.034,248-248,248
		C255.999,504,435.668,195.435,255.999,8.001"/>
</g>
<g>
	<path style="fill:#1D1D1B;" d="M288,95.635c-17.443,0-31.635-14.191-31.635-31.635S270.556,32.367,288,32.367
		c17.443,0,31.634,14.191,31.634,31.634C319.634,81.444,305.443,95.635,288,95.635z M288,47.635
		c-9.024,0-16.366,7.341-16.366,16.365S278.976,80.366,288,80.366S304.366,73.023,304.366,64
		C304.366,54.977,297.024,47.635,288,47.635z"/>
	<path style="fill:#1D1D1B;" d="M176,279.634c-13.031,0-23.634-10.603-23.634-23.635s10.603-23.635,23.634-23.635
		c13.033,0,23.635,10.603,23.635,23.635C199.635,269.032,189.032,279.634,176,279.634z M176,247.634
		c-4.613,0-8.365,3.753-8.365,8.365c0,4.612,3.752,8.365,8.365,8.365s8.365-3.753,8.365-8.365
		C184.365,251.387,180.613,247.634,176,247.634z"/>
	<path style="fill:#1D1D1B;" d="M200,471.634c-17.443,0-31.635-14.191-31.635-31.635c0-17.443,14.191-31.635,31.635-31.635
		s31.634,14.191,31.634,31.635C231.634,457.443,217.443,471.634,200,471.634z M200,423.635c-9.024,0-16.366,7.341-16.366,16.366
		c0,9.025,7.342,16.366,16.366,16.366c9.024,0,16.365-7.341,16.365-16.366C216.365,430.976,209.023,423.635,200,423.635z"/>
	<path style="fill:#1D1D1B;" d="M368.001,423.635c-26.266,0-47.635-21.369-47.635-47.635c0-26.266,21.369-47.634,47.635-47.634
		c26.265,0,47.634,21.369,47.634,47.634C415.634,402.265,394.266,423.635,368.001,423.635z M368.001,343.635
		c-17.847,0-32.367,14.519-32.367,32.365c0,17.847,14.521,32.366,32.367,32.366s32.365-14.519,32.365-32.366
		C400.365,358.154,385.847,343.635,368.001,343.635z"/>
	<path style="fill:#1D1D1B;" d="M336,199.635c-13.033,0-23.635-10.603-23.635-23.635c0-13.031,10.603-23.634,23.635-23.634
		c13.033,0,23.634,10.603,23.634,23.634C359.633,189.032,349.032,199.635,336,199.635z M336,167.634
		c-4.613,0-8.366,3.752-8.366,8.365s3.754,8.365,8.366,8.365c4.612,0,8.365-3.753,8.365-8.365S340.612,167.634,336,167.634z"/>
	<path style="fill:#1D1D1B;" d="M437.019,74.981C388.667,26.629,324.38,0,255.999,0S123.332,26.629,74.98,74.981S0,187.62,0,256
		S26.629,388.668,74.98,437.02S187.619,512,255.999,512c44.898,0,89.071-11.791,127.743-34.101
		c37.511-21.64,69.172-52.678,91.562-89.761C499.31,348.379,512,302.687,512,256.001C512,187.62,485.37,123.333,437.019,74.981z
		 M464.365,152c0,17.847-14.519,32.366-32.366,32.366c-17.847,0-32.366-14.519-32.366-32.366c0-17.846,14.519-32.365,32.366-32.365
		C449.846,119.635,464.365,134.154,464.365,152z M80,135.635c26.669,0,48.366,21.697,48.366,48.366
		c0,26.668-21.697,48.365-48.366,48.365c-26.668,0-48.365-21.697-48.365-48.365C31.635,157.331,53.331,135.635,80,135.635z
		 M55.634,376c0-4.613,3.752-8.365,8.365-8.365c4.613,0,8.365,3.752,8.365,8.365s-3.753,8.365-8.365,8.365
		S55.634,380.613,55.634,376z M461.608,379.867c-20.996,34.775-50.687,63.881-85.86,84.172C339.504,484.948,298.096,496,255.999,496
		c-64.106,0-124.375-24.965-169.706-70.294c-8.222-8.222-15.764-16.941-22.618-26.08c0.108,0.001,0.216,0.008,0.324,0.008
		c13.032,0,23.635-10.603,23.635-23.635c0-13.031-10.603-23.634-23.635-23.634c-9.465,0-17.643,5.595-21.413,13.648
		C25.216,332.409,16,294.916,16,255.999c0-16.482,1.663-32.708,4.885-48.493c9.372,23.483,32.329,40.128,59.115,40.128
		c35.088,0,63.635-28.546,63.635-63.634S115.088,120.365,80,120.365c-9.14,0-17.827,1.952-25.69,5.436
		c9.142-14.098,19.822-27.346,31.985-39.508c45.33-45.33,105.599-70.294,169.706-70.294s124.375,24.965,169.705,70.294
		c6.192,6.193,11.99,12.673,17.411,19.395c-3.569-0.857-7.288-1.323-11.116-1.323c-26.266,0-47.635,21.369-47.635,47.634
		s21.369,47.635,47.635,47.635c21.967,0,40.499-14.951,45.979-35.209C489.8,193.084,496,224.065,496,256
		C496,299.771,484.106,342.605,461.608,379.867z"/>
	<rect x="31.999" y="264.37" style="fill:#1D1D1B;" width="16" height="15.269"/>
</g>
<rect x="192.002" y="143.996" style="fill:#FFFFFF;" width="16" height="15.999"/>
<rect x="359.996" y="80.36" style="fill:#1D1D1B;" width="15.999" height="15.269"/>
<rect x="256.003" y="216" style="fill:#FFFFFF;" width="15.999" height="15.999"/>
<g>
	<rect x="359.996" y="256.367" style="fill:#1D1D1B;" width="15.999" height="15.269"/>
	<rect x="448.005" y="224.367" style="fill:#1D1D1B;" width="16" height="15.269"/>
	<rect x="448.005" y="320.368" style="fill:#1D1D1B;" width="16" height="15.269"/>
</g>
<g>
	<rect x="263.995" y="295.995" style="fill:#FFFFFF;" width="15.999" height="15.999"/>
	<rect x="168.004" y="327.995" style="fill:#FFFFFF;" width="16" height="15.999"/>
	<rect x="248" y="399.999" style="fill:#FFFFFF;" width="16" height="15.999"/>
</g>
<rect x="303.998" y="448.369" style="fill:#1D1D1B;" width="15.999" height="15.269"/>
<g>
	<rect x="104.004" y="376.001" style="fill:#FFFFFF;" width="16" height="15.999"/>
	<rect x="128.001" y="87.998" style="fill:#FFFFFF;" width="16" height="15.999"/>
	<rect x="207.997" y="40.003" style="fill:#FFFFFF;" width="15.999" height="15.999"/>
</g>
<g>
</g>
<g>
</g>
<g>
</g>
<g>
</g>
<g>
</g>
<g>
</g>
<g>
</g>
<g>
</g>
<g>
</g>
<g>
</g>
<g>
</g>
<g>
</g>
<g>
</g>
<g>
</g>
<g>
</g>
</svg>
